<svg xmlns="http://www.w3.org/2000/svg" width="517.017" height="84.445" viewBox="0 0 517.017 84.445">
  <g id="Group_16829" data-name="Group 16829" transform="translate(-1236.471 -485)">
    <g id="Group_16827" data-name="Group 16827" transform="translate(1236.471 485)">
      <path id="Path_63835" data-name="Path 63835" d="M66.548,60.017a6.531,6.531,0,1,1-6.531-6.531,6.531,6.531,0,0,1,6.531,6.531" transform="translate(-17.794 -17.794)" fill="#fff"/>
      <path id="Path_63836" data-name="Path 63836" d="M37.673,26.608A14.213,14.213,0,0,1,23.459,40.822a10.466,10.466,0,0,1-1.128-.053H22.3a14.192,14.192,0,0,1-10.49-6.012l-.007-.007a11.731,11.731,0,0,0-.974-1.622,13.237,13.237,0,0,0-7.378-5.167A4.583,4.583,0,0,1,.01,23.552v0a4.56,4.56,0,0,1,5.748-4.394,22.111,22.111,0,0,1,4.649,1.822A22.392,22.392,0,0,1,18.748,28.6a.025.025,0,0,1,.007.02,5.306,5.306,0,0,0,.714,1.181A5.107,5.107,0,1,0,26.356,22.4l-.013-.007-.027-.02a4.311,4.311,0,0,0-.641-.367h-.007l-.027-.02L14.517,15.564,2.275,8.5A4.549,4.549,0,1,1,6.825.617l23.034,13.3.007.007,1.288.741.047.027.053.033a14.206,14.206,0,0,1,6.42,11.885" transform="translate(0 0)" fill="#fff"/>
      <path id="Path_63837" data-name="Path 63837" d="M70.09,26.608A14.213,14.213,0,0,0,84.3,40.822a10.466,10.466,0,0,0,1.128-.053h.033a14.192,14.192,0,0,0,10.49-6.012l.007-.007a11.731,11.731,0,0,1,.974-1.622,13.237,13.237,0,0,1,7.378-5.167,4.583,4.583,0,0,0,3.439-4.408v0a4.56,4.56,0,0,0-5.748-4.394,22.111,22.111,0,0,0-4.649,1.822A22.392,22.392,0,0,0,89.015,28.6a.025.025,0,0,0-.007.02,5.306,5.306,0,0,1-.714,1.181A5.107,5.107,0,1,1,81.408,22.4l.013-.007.027-.02a4.311,4.311,0,0,1,.641-.367h.007l.027-.02,11.124-6.426L105.488,8.5a4.549,4.549,0,1,0-4.55-7.88L77.9,13.916l-.007.007-1.288.741-.047.027-.053.033a14.206,14.206,0,0,0-6.42,11.885" transform="translate(-23.318 0)" fill="#fff"/>
      <path id="Path_63838" data-name="Path 63838" d="M37.673,79.586A14.213,14.213,0,0,0,23.459,65.372a10.466,10.466,0,0,0-1.128.053H22.3a14.192,14.192,0,0,0-10.49,6.012l-.007.007a11.731,11.731,0,0,1-.974,1.622,13.237,13.237,0,0,1-7.378,5.167A4.583,4.583,0,0,0,.01,82.641v0A4.56,4.56,0,0,0,5.758,87.04a22.111,22.111,0,0,0,4.649-1.822A22.392,22.392,0,0,0,18.748,77.6a.025.025,0,0,0,.007-.02,5.306,5.306,0,0,1,.714-1.181,5.107,5.107,0,1,1,6.887,7.394l-.013.007-.027.02a4.311,4.311,0,0,1-.641.367h-.007l-.027.02L14.517,90.63,2.275,97.7a4.549,4.549,0,1,0,4.55,7.88l23.034-13.3.007-.007,1.288-.741L31.2,91.5l.053-.033a14.206,14.206,0,0,0,6.42-11.885" transform="translate(0 -21.748)" fill="#fff"/>
      <path id="Path_63839" data-name="Path 63839" d="M70.09,79.586A14.213,14.213,0,0,1,84.3,65.372a10.466,10.466,0,0,1,1.128.053h.033a14.192,14.192,0,0,1,10.49,6.012l.007.007a11.731,11.731,0,0,0,.974,1.622,13.237,13.237,0,0,0,7.378,5.167,4.583,4.583,0,0,1,3.439,4.408v0a4.56,4.56,0,0,1-5.748,4.394,22.111,22.111,0,0,1-4.649-1.822A22.392,22.392,0,0,1,89.015,77.6a.025.025,0,0,1-.007-.02,5.306,5.306,0,0,0-.714-1.181,5.107,5.107,0,1,0-6.887,7.394l.013.007.027.02a4.31,4.31,0,0,0,.641.367h.007l.027.02L93.246,90.63,105.488,97.7a4.549,4.549,0,1,1-4.55,7.88L77.9,92.278l-.007-.007-1.288-.741-.047-.027-.053-.033a14.206,14.206,0,0,1-6.42-11.885" transform="translate(-23.318 -21.748)" fill="#fff"/>
      <path id="Path_63840" data-name="Path 63840" d="M123.247,65.169V54.956a1.344,1.344,0,0,0-1.707-1.285,6.617,6.617,0,0,0,0,12.784,1.344,1.344,0,0,0,1.707-1.285" transform="translate(-38.802 -17.84)" fill="#fff"/>
      <path id="Path_63841" data-name="Path 63841" d="M0,65.169V54.956A1.344,1.344,0,0,1,1.707,53.67a6.617,6.617,0,0,1,4.908,6.392,6.617,6.617,0,0,1-4.908,6.392A1.344,1.344,0,0,1,0,65.169" transform="translate(0 -17.84)" fill="#fff"/>
      <path id="Path_63842" data-name="Path 63842" d="M49.385,120.83H66.142a2.676,2.676,0,0,0,2.541-3.5,11.467,11.467,0,0,0-21.838,0,2.675,2.675,0,0,0,2.54,3.5" transform="translate(-15.541 -36.385)" fill="#fff"/>
      <path id="Path_63843" data-name="Path 63843" d="M49.385,0H66.142a2.676,2.676,0,0,1,2.541,3.5,11.468,11.468,0,0,1-10.919,7.964A11.466,11.466,0,0,1,46.845,3.5,2.675,2.675,0,0,1,49.385,0" transform="translate(-15.541 0)" fill="#fff"/>
    </g>
    <g id="Group_16842" data-name="Group 16842" transform="translate(1345.722 496.642)">
      <path id="Path_63844" data-name="Path 63844" d="M165.043,75.119V17.249h30.552q8.715,0,13.165,4.134t4.449,11.682a15.415,15.415,0,0,1-1.753,7.683,12.753,12.753,0,0,1-4.627,4.807,13.823,13.823,0,0,1,6.2,4.222q2.244,2.786,2.246,8.358,0,8.267-4.853,12.625t-13.929,4.358ZM179.51,40.792h11.77q3.777,0,5.483-1.707a6.446,6.446,0,0,0,1.707-4.762,6.672,6.672,0,0,0-1.707-4.987q-1.708-1.662-6.2-1.662H179.51Zm0,23.994h13.21q3.952,0,5.885-1.618t1.932-5.751a6.3,6.3,0,0,0-1.886-4.986q-1.888-1.664-6.47-1.662H179.51Z" transform="translate(-165.043 -13.653)" fill="#fff"/>
      <path id="Path_63845" data-name="Path 63845" d="M228.257,73.551a19.356,19.356,0,0,1-7.5-1.438,12.23,12.23,0,0,1-5.526-4.447,12.945,12.945,0,0,1-2.068-7.5q0-6.559,4.449-10.29t13.345-3.728h11.861v-.989a5.086,5.086,0,0,0-2.157-4.627q-2.158-1.392-8.088-1.393a46.561,46.561,0,0,0-14.287,2.246V32.036a39.7,39.7,0,0,1,7.684-2.066,54.406,54.406,0,0,1,9.57-.809q9.881,0,15.5,4.045t5.616,12.849v26.6H243.983l-.719-3.594a15.781,15.781,0,0,1-5.976,3.325,29.953,29.953,0,0,1-9.031,1.168m4.583-8.9a13.939,13.939,0,0,0,5.931-1.169,11.62,11.62,0,0,0,4.043-2.965V54.5H232.57q-6.379,0-6.379,5.122a4.541,4.541,0,0,0,1.617,3.685,7.771,7.771,0,0,0,5.033,1.348" transform="translate(-158.706 -12.085)" fill="#fff"/>
      <path id="Path_63846" data-name="Path 63846" d="M271.223,75.537q-7.009,0-10.064-3.056t-3.056-9.8V14.072h14.467V61.249a2.969,2.969,0,0,0,3.415,3.594,13.573,13.573,0,0,0,4.313-.629v9.8a21.747,21.747,0,0,1-4.089,1.169,29.34,29.34,0,0,1-4.987.359" transform="translate(-152.79 -14.072)" fill="#fff"/>
      <path id="Path_63847" data-name="Path 63847" d="M297.326,74.931q-7.91,0-11.637-4.043T281.96,59.744V42.4h-5.752V31.438h5.752v-8.9l14.467-3.864v12.76h10.333L306.132,42.4h-9.7V58.756q0,3.056,1.528,4.269a7.281,7.281,0,0,0,4.583,1.212,16.71,16.71,0,0,0,5.3-.9v9.795a26.945,26.945,0,0,1-10.513,1.8" transform="translate(-150.406 -13.466)" fill="#fff"/>
      <path id="Path_63848" data-name="Path 63848" d="M312.195,75.391V43.49h-6.29L307.162,32.8h19.5V75.391Zm-1.168-60.206h15.727V26.057H311.027Z" transform="translate(-146.496 -13.925)" fill="#fff"/>
      <path id="Path_63849" data-name="Path 63849" d="M353.909,73.551q-11.414,0-17.839-5.571t-6.424-16.624q0-11.232,6.695-16.715t17.838-5.482a43.018,43.018,0,0,1,8.131.674,28.3,28.3,0,0,1,6.695,2.2V42.28a26.82,26.82,0,0,0-11.773-2.426q-6.289,0-9.569,2.516t-3.28,8.987q0,6.021,3.055,8.761t9.705,2.74a26.347,26.347,0,0,0,11.95-2.694V70.854a28.793,28.793,0,0,1-6.963,2.068,49.8,49.8,0,0,1-8.223.629" transform="translate(-143.37 -12.085)" fill="#fff"/>
      <path id="Path_63850" data-name="Path 63850" d="M373.3,75.119V17.249h12.4l24.622,34.6v-34.6h14.558v57.87h-12.49L387.772,40.613V75.119Z" transform="translate(-137.622 -13.653)" fill="#fff"/>
      <path id="Path_63851" data-name="Path 63851" d="M453.049,75.328q-14.111,0-21.477-7.189T424.2,45.763q0-16.084,7.369-23.094t21.477-7.01q14.106,0,21.476,7.01t7.368,23.094q0,15.188-7.368,22.375t-21.476,7.189m0-12.311q7.277,0,10.648-4.179t3.37-13.074q0-9.7-3.37-13.7t-10.648-4q-7.369,0-10.74,4t-3.369,13.7q0,8.895,3.369,13.074t10.74,4.179" transform="translate(-130.92 -13.863)" fill="#fff"/>
      <path id="Path_63852" data-name="Path 63852" d="M509.555,75.328q-15.008,0-22.823-7.593T478.913,46.3q0-14.466,8-22.554t23.543-8.088a66.156,66.156,0,0,1,9.571.628,49.808,49.808,0,0,1,8.132,1.888v12.4a36.353,36.353,0,0,0-8.043-1.977,67.138,67.138,0,0,0-8.581-.539q-9.347,0-13.614,4.447T493.651,46.3q0,8.537,4.043,12.626t11.952,4.088a31.626,31.626,0,0,0,9.705-1.438V50.616H506.86V41.54h24.622V70.206a32.543,32.543,0,0,1-8.492,3.549,49.076,49.076,0,0,1-13.434,1.573" transform="translate(-123.715 -13.863)" fill="#fff"/>
    </g>
  </g>
</svg>
