<svg id="Group_16847" data-name="Group 16847" xmlns="http://www.w3.org/2000/svg" width="84.445" height="84.445" viewBox="0 0 84.445 84.445">
  <path id="Path_63835" data-name="Path 63835" d="M66.548,60.017a6.531,6.531,0,1,1-6.531-6.531,6.531,6.531,0,0,1,6.531,6.531" transform="translate(-17.794 -17.794)" fill="#fff"/>
  <path id="Path_63836" data-name="Path 63836" d="M37.673,26.608A14.213,14.213,0,0,1,23.459,40.822a10.465,10.465,0,0,1-1.128-.053H22.3a14.192,14.192,0,0,1-10.49-6.013l-.007-.007a11.731,11.731,0,0,0-.974-1.622,13.237,13.237,0,0,0-7.378-5.167A4.583,4.583,0,0,1,.01,23.552v0a4.56,4.56,0,0,1,5.748-4.394,22.111,22.111,0,0,1,4.649,1.822A22.392,22.392,0,0,1,18.748,28.6a.025.025,0,0,1,.007.02,5.306,5.306,0,0,0,.714,1.181A5.107,5.107,0,1,0,26.356,22.4l-.013-.007-.027-.02a4.311,4.311,0,0,0-.641-.367h-.007l-.027-.02L14.517,15.564,2.275,8.5A4.549,4.549,0,1,1,6.825.617l23.034,13.3.007.007,1.288.741.047.027.053.033a14.206,14.206,0,0,1,6.42,11.885" transform="translate(0 0)" fill="#fff"/>
  <path id="Path_63837" data-name="Path 63837" d="M70.09,26.608A14.213,14.213,0,0,0,84.3,40.822a10.465,10.465,0,0,0,1.128-.053h.033a14.192,14.192,0,0,0,10.49-6.013l.007-.007a11.73,11.73,0,0,1,.974-1.622,13.237,13.237,0,0,1,7.378-5.167,4.583,4.583,0,0,0,3.439-4.408v0a4.56,4.56,0,0,0-5.748-4.394,22.111,22.111,0,0,0-4.649,1.822A22.392,22.392,0,0,0,89.015,28.6a.025.025,0,0,0-.007.02,5.307,5.307,0,0,1-.714,1.181A5.107,5.107,0,1,1,81.408,22.4l.013-.007.027-.02a4.312,4.312,0,0,1,.641-.367H82.1l.027-.02,11.124-6.426L105.488,8.5a4.549,4.549,0,1,0-4.55-7.88L77.9,13.916l-.007.007-1.288.741-.047.027-.053.033a14.206,14.206,0,0,0-6.42,11.885" transform="translate(-23.318 0)" fill="#fff"/>
  <path id="Path_63838" data-name="Path 63838" d="M37.673,79.586A14.213,14.213,0,0,0,23.459,65.372a10.464,10.464,0,0,0-1.128.053H22.3a14.192,14.192,0,0,0-10.49,6.013l-.007.007a11.731,11.731,0,0,1-.974,1.622,13.237,13.237,0,0,1-7.378,5.167A4.583,4.583,0,0,0,.01,82.641v0A4.56,4.56,0,0,0,5.758,87.04a22.111,22.111,0,0,0,4.649-1.822A22.392,22.392,0,0,0,18.748,77.6a.025.025,0,0,0,.007-.02,5.306,5.306,0,0,1,.714-1.181,5.107,5.107,0,1,1,6.887,7.394l-.013.007-.027.02a4.312,4.312,0,0,1-.641.367h-.007l-.027.02L14.517,90.63,2.275,97.7a4.549,4.549,0,1,0,4.55,7.88l23.034-13.3.007-.007,1.288-.741L31.2,91.5l.053-.033a14.206,14.206,0,0,0,6.42-11.885" transform="translate(0 -21.748)" fill="#fff"/>
  <path id="Path_63839" data-name="Path 63839" d="M70.09,79.586A14.213,14.213,0,0,1,84.3,65.372a10.464,10.464,0,0,1,1.128.053h.033a14.192,14.192,0,0,1,10.49,6.013l.007.007a11.73,11.73,0,0,0,.974,1.622,13.237,13.237,0,0,0,7.378,5.167,4.583,4.583,0,0,1,3.439,4.408v0a4.56,4.56,0,0,1-5.748,4.394,22.111,22.111,0,0,1-4.649-1.822A22.392,22.392,0,0,1,89.015,77.6a.025.025,0,0,1-.007-.02,5.306,5.306,0,0,0-.714-1.181,5.107,5.107,0,1,0-6.887,7.394l.013.007.027.02a4.313,4.313,0,0,0,.641.367H82.1l.027.02L93.246,90.63,105.488,97.7a4.549,4.549,0,1,1-4.55,7.88L77.9,92.278l-.007-.007-1.288-.741-.047-.027-.053-.033a14.206,14.206,0,0,1-6.42-11.885" transform="translate(-23.318 -21.748)" fill="#fff"/>
  <path id="Path_63840" data-name="Path 63840" d="M123.247,65.169V54.956a1.344,1.344,0,0,0-1.707-1.285,6.617,6.617,0,0,0,0,12.784,1.344,1.344,0,0,0,1.707-1.285" transform="translate(-38.802 -17.84)" fill="#fff"/>
  <path id="Path_63841" data-name="Path 63841" d="M0,65.169V54.956A1.344,1.344,0,0,1,1.707,53.67a6.617,6.617,0,0,1,4.908,6.392,6.618,6.618,0,0,1-4.908,6.392A1.344,1.344,0,0,1,0,65.169" transform="translate(0 -17.84)" fill="#fff"/>
  <path id="Path_63842" data-name="Path 63842" d="M49.385,120.83H66.142a2.676,2.676,0,0,0,2.541-3.5,11.467,11.467,0,0,0-21.838,0,2.675,2.675,0,0,0,2.54,3.5" transform="translate(-15.541 -36.384)" fill="#fff"/>
  <path id="Path_63843" data-name="Path 63843" d="M49.385,0H66.142a2.676,2.676,0,0,1,2.541,3.5,11.468,11.468,0,0,1-10.919,7.964A11.466,11.466,0,0,1,46.845,3.5,2.675,2.675,0,0,1,49.385,0" transform="translate(-15.541 0)" fill="#fff"/>
</svg>
