<svg xmlns="http://www.w3.org/2000/svg" width="619.365" height="124.055" viewBox="0 0 619.365 124.055">
  <g id="Group_16922" data-name="Group 16922" transform="translate(-649.932 -588)">
    <g id="Group_16871" data-name="Group 16871" transform="translate(649.932 588)">
      <path id="Path_63786" data-name="Path 63786" d="M72.509,63A9.512,9.512,0,1,1,63,53.486,9.512,9.512,0,0,1,72.509,63" transform="translate(-1.083 -1.083)" fill="#0047bb"/>
      <g id="Group_16847" data-name="Group 16847" transform="translate(0 0)">
        <path id="Path_63788" data-name="Path 63788" d="M70.09,39.036A20.916,20.916,0,0,0,91.072,59.889a15.545,15.545,0,0,0,1.665-.078h.049a20.976,20.976,0,0,0,15.485-8.821l.01-.01a17.189,17.189,0,0,1,1.438-2.379,19.539,19.539,0,0,1,10.891-7.58,6.732,6.732,0,0,0,5.077-6.467v-.007A6.722,6.722,0,0,0,117.2,28.1,33.064,33.064,0,0,0,98.026,41.954a.036.036,0,0,0-.01.029,7.776,7.776,0,0,1-1.054,1.733,7.575,7.575,0,0,1-7.48,2.657,7.484,7.484,0,0,1-2.685-13.5l.02-.01.039-.029a6.373,6.373,0,0,1,.946-.538h.01l.039-.029,16.421-9.428,18.072-10.369A6.685,6.685,0,1,0,115.627.9l-34,19.511-.01.01-1.9,1.087-.069.039-.079.049A20.81,20.81,0,0,0,70.09,39.036" transform="translate(-1.646 0)" fill="#0047bb"/>
        <path id="Path_63879" data-name="Path 63879" d="M125.7,39.036a20.916,20.916,0,0,1-20.982,20.853,15.544,15.544,0,0,1-1.665-.078h-.049A20.976,20.976,0,0,1,87.52,50.99l-.01-.01A17.193,17.193,0,0,0,86.072,48.6a19.539,19.539,0,0,0-10.891-7.58A6.732,6.732,0,0,1,70.1,34.553v-.007A6.722,6.722,0,0,1,78.589,28.1,33.064,33.064,0,0,1,97.765,41.954a.036.036,0,0,1,.01.029,7.775,7.775,0,0,0,1.054,1.733,7.575,7.575,0,0,0,7.48,2.657,7.484,7.484,0,0,0,2.685-13.5l-.02-.01-.039-.029a6.374,6.374,0,0,0-.946-.538h-.01l-.039-.029L91.52,22.833,73.448,12.465A6.685,6.685,0,1,1,80.164.9l34,19.511.01.01,1.9,1.087.069.039.079.049A20.81,20.81,0,0,1,125.7,39.036" transform="translate(-70.09 0)" fill="#0047bb"/>
        <path id="Path_63877" data-name="Path 63877" d="M70.09,20.853A20.916,20.916,0,0,1,91.072,0a15.544,15.544,0,0,1,1.665.078h.049A20.976,20.976,0,0,1,108.271,8.9l.01.01a17.188,17.188,0,0,0,1.438,2.379,19.539,19.539,0,0,0,10.891,7.58,6.732,6.732,0,0,1,5.077,6.467v.007a6.722,6.722,0,0,1-8.484,6.446,32.758,32.758,0,0,1-6.863-2.673,32.979,32.979,0,0,1-12.313-11.18.036.036,0,0,1-.01-.029,7.776,7.776,0,0,0-1.054-1.733,7.575,7.575,0,0,0-7.48-2.657,7.484,7.484,0,0,0-2.685,13.5l.02.01.039.029a6.373,6.373,0,0,0,.946.538h.01l.039.029,16.421,9.428,18.072,10.369a6.685,6.685,0,1,1-6.716,11.56l-34-19.511-.01-.01-1.9-1.087-.069-.039-.079-.049A20.81,20.81,0,0,1,70.09,20.853" transform="translate(-1.646 64.166)" fill="#0047bb"/>
        <path id="Path_63878" data-name="Path 63878" d="M125.7,20.853A20.916,20.916,0,0,0,104.719,0a15.543,15.543,0,0,0-1.665.078h-.049A20.976,20.976,0,0,0,87.52,8.9l-.01.01a17.192,17.192,0,0,1-1.438,2.379,19.539,19.539,0,0,1-10.891,7.58A6.732,6.732,0,0,0,70.1,25.336v.007a6.722,6.722,0,0,0,8.484,6.446,32.76,32.76,0,0,0,6.863-2.673,32.98,32.98,0,0,0,12.313-11.18.036.036,0,0,0,.01-.029,7.775,7.775,0,0,1,1.054-1.733,7.575,7.575,0,0,1,7.48-2.657,7.484,7.484,0,0,1,2.685,13.5l-.02.01-.039.029a6.375,6.375,0,0,1-.946.538h-.01l-.039.029L91.52,37.056,73.448,47.424a6.685,6.685,0,1,0,6.716,11.56l34-19.511.01-.01,1.9-1.087.069-.039.079-.049A20.81,20.81,0,0,0,125.7,20.853" transform="translate(-70.09 64.166)" fill="#0047bb"/>
      </g>
      <path id="Path_63792" data-name="Path 63792" d="M0,72.453V55.8a2.192,2.192,0,0,1,2.784-2.1,10.791,10.791,0,0,1,8,10.424,10.792,10.792,0,0,1-8,10.424A2.192,2.192,0,0,1,0,72.453" transform="translate(0 -2.29)" fill="#0047bb"/>
      <path id="Path_63880" data-name="Path 63880" d="M0,18.83V2.173A2.192,2.192,0,0,1,2.784.078a10.791,10.791,0,0,1,8,10.424,10.792,10.792,0,0,1-8,10.424A2.192,2.192,0,0,1,0,18.83" transform="translate(124.055 72.337) rotate(180)" fill="#0047bb"/>
      <path id="Path_63793" data-name="Path 63793" d="M50.6,126.062h24.4a3.9,3.9,0,0,0,3.7-5.1,16.7,16.7,0,0,0-31.8,0,3.9,3.9,0,0,0,3.7,5.1" transform="translate(-0.728 -2.007)" fill="#0047bb"/>
      <path id="Path_63794" data-name="Path 63794" d="M50.6,0h24.4a3.9,3.9,0,0,1,3.7,5.1,16.7,16.7,0,0,1-15.9,11.6A16.7,16.7,0,0,1,46.9,5.1,3.9,3.9,0,0,1,50.6,0" transform="translate(-0.728 0)" fill="#0047bb"/>
    </g>
    <g id="Group_16921" data-name="Group 16921" transform="translate(803.883 612)">
      <path id="Path_63916" data-name="Path 63916" d="M153.195,57a21.951,21.951,0,0,0-5.449-5.5,23.809,23.809,0,0,0,2.157-1.785,16.549,16.549,0,0,0,3.733-5.332,18.56,18.56,0,0,0,1.5-7.755A21.4,21.4,0,0,0,152.683,26.4a17.683,17.683,0,0,0-7.718-7.349c-3.407-1.758-7.814-2.648-13.1-2.648H104.06a3.636,3.636,0,0,0-2.787,1.124,3.924,3.924,0,0,0-.994,2.757V86.555a3.833,3.833,0,0,0,.991,2.654,3.642,3.642,0,0,0,2.79,1.126h28.522a26.8,26.8,0,0,0,13.134-2.974,20.176,20.176,0,0,0,8.13-8.031,22.637,22.637,0,0,0,2.714-10.94A19.239,19.239,0,0,0,153.195,57M113.117,46.445V27.517h17.231c3.967,0,6.972.812,8.929,2.412,1.9,1.554,2.819,3.775,2.819,6.8a8.94,8.94,0,0,1-2.867,7.093c-1.948,1.741-4.936,2.625-8.881,2.625Zm30.4,21.945a10.383,10.383,0,0,1-3.129,7.706c-2.106,2.105-5.091,3.129-9.127,3.129H113.117V57.455h18.145c3.982,0,7.057,1.039,9.135,3.084a10.473,10.473,0,0,1,3.122,7.851" transform="translate(-100.279 -14.682)" fill="#0a0045"/>
      <path id="Path_63917" data-name="Path 63917" d="M187.654,40.313A17.681,17.681,0,0,0,183.9,33.8l0,0a18.021,18.021,0,0,0-7.108-4.6,30.766,30.766,0,0,0-10.762-1.665,27.4,27.4,0,0,0-9.808,1.569,22.326,22.326,0,0,0-6.674,3.864,16.968,16.968,0,0,0-3.933,4.782,9.794,9.794,0,0,0-1.329,4.424,3.775,3.775,0,0,0,.9,2.506,3.462,3.462,0,0,0,2.78,1.172h4.567A3.589,3.589,0,0,0,156,43.413a8.333,8.333,0,0,1,3.354-3.987,11.9,11.9,0,0,1,6.567-1.593c3.782,0,6.5.783,8.071,2.326a8.735,8.735,0,0,1,2.359,6.583v1.686l-13.886,1.959c-6.3.91-11.5,2.844-15.464,5.745a14.575,14.575,0,0,0-6.276,12.331,14.327,14.327,0,0,0,2.818,8.67,19.362,19.362,0,0,0,7.229,5.927,22.353,22.353,0,0,0,9.87,2.174,26.708,26.708,0,0,0,8.7-1.247,20.355,20.355,0,0,0,6.007-3.176q.637-.507,1.208-1.022v.65a3.843,3.843,0,0,0,.992,2.656,3.64,3.64,0,0,0,2.788,1.124h4.669a3.7,3.7,0,0,0,3.779-3.781V47.553a23.889,23.889,0,0,0-1.134-7.24m-11.3,17.946V59.43a18.785,18.785,0,0,1-1.813,8.765,11.106,11.106,0,0,1-4.813,4.92,15.015,15.015,0,0,1-6.95,1.616,14.565,14.565,0,0,1-4.847-.83,8.587,8.587,0,0,1-3.666-2.393,5.38,5.38,0,0,1-1.309-3.757c0-1.931.982-3.509,3-4.827,2.248-1.467,5.7-2.537,10.281-3.18Z" transform="translate(-78.003 -8.567)" fill="#0a0045"/>
      <path id="Path_63918" data-name="Path 63918" d="M190.685,16.877a3.646,3.646,0,0,0-2.788-1.124h-4.77a3.7,3.7,0,0,0-3.781,3.778V86.915a3.7,3.7,0,0,0,3.781,3.78h4.77a3.634,3.634,0,0,0,2.787-1.124,3.828,3.828,0,0,0,.994-2.656V19.531a3.838,3.838,0,0,0-.992-2.654" transform="translate(-56.737 -15.043)" fill="#0a0045"/>
      <path id="Path_63919" data-name="Path 63919" d="M228.953,80.566a3.721,3.721,0,0,0-2.7-1.082h-6.192c-2.245,0-3.731-.667-4.542-2.031a13.447,13.447,0,0,1-1.42-6.774V46.042h11.14a3.706,3.706,0,0,0,3.781-3.777V38.813a3.7,3.7,0,0,0-3.781-3.778H214.1v-15.5a3.7,3.7,0,0,0-3.781-3.778h-4.771a3.7,3.7,0,0,0-3.779,3.778v15.5H195.3a3.7,3.7,0,0,0-3.781,3.778v3.453a3.7,3.7,0,0,0,3.781,3.777h6.471V71.39A26.722,26.722,0,0,0,203.5,81.42a14.051,14.051,0,0,0,5.758,6.878,18.913,18.913,0,0,0,9.994,2.4h7a3.706,3.706,0,0,0,3.781-3.78V83.262a3.723,3.723,0,0,0-1.085-2.7" transform="translate(-50.033 -15.043)" fill="#0a0045"/>
      <path id="Path_63920" data-name="Path 63920" d="M233.123,16.374a3.733,3.733,0,0,0-2.7-1.079h-6.393a3.7,3.7,0,0,0-3.779,3.779v5.482a3.7,3.7,0,0,0,3.779,3.779h6.393a3.7,3.7,0,0,0,3.781-3.779V19.074a3.733,3.733,0,0,0-1.085-2.7" transform="translate(-34.209 -15.295)" fill="#0a0045"/>
      <path id="Path_63921" data-name="Path 63921" d="M232.117,29.313a3.546,3.546,0,0,0-2.686-1.124h-4.872a3.7,3.7,0,0,0-3.781,3.779v48.11a3.7,3.7,0,0,0,3.781,3.781h4.872a3.544,3.544,0,0,0,2.684-1.124,3.832,3.832,0,0,0,.994-2.656V31.968a3.839,3.839,0,0,0-.992-2.655" transform="translate(-33.921 -8.207)" fill="#0a0045"/>
      <path id="Path_63922" data-name="Path 63922" d="M280.506,63.262h-4.871a3.593,3.593,0,0,0-2.487.825,6.263,6.263,0,0,0-1.406,2.152c-1.1,3-2.583,5.114-4.4,6.288a12.785,12.785,0,0,1-7.031,1.8,12.093,12.093,0,0,1-8.889-3.294c-2.249-2.19-3.484-5.939-3.672-11.139-.07-2.261-.07-4.623,0-7.008.189-5.144,1.427-8.878,3.681-11.1a12,12,0,0,1,8.881-3.337,12.8,12.8,0,0,1,7.031,1.8c1.819,1.174,3.3,3.291,4.441,6.386a6.146,6.146,0,0,0,1.362,2.05,3.6,3.6,0,0,0,2.493.83h4.871a3.98,3.98,0,0,0,2.666-.957,3.151,3.151,0,0,0,1.113-2.777,16.119,16.119,0,0,0-1.6-6.138,19.2,19.2,0,0,0-4.44-5.93,23.034,23.034,0,0,0-7.415-4.452,29.7,29.7,0,0,0-10.619-1.72A27.6,27.6,0,0,0,247.09,30.5a20.914,20.914,0,0,0-8.656,8.6,28.983,28.983,0,0,0-3.218,13.13c-.07,1.042-.105,2.441-.105,4.154s.036,3.115.1,4.1a29.075,29.075,0,0,0,3.221,13.186,20.9,20.9,0,0,0,8.658,8.6,27.59,27.59,0,0,0,13.114,2.96,31.91,31.91,0,0,0,8.774-1.121,23.946,23.946,0,0,0,6.752-3.032,20.438,20.438,0,0,0,4.748-4.371,18.247,18.247,0,0,0,2.805-4.911,16.169,16.169,0,0,0,.994-4.717,3.235,3.235,0,0,0-1.107-2.861,3.973,3.973,0,0,0-2.666-.958" transform="translate(-26.028 -8.567)" fill="#0a0045"/>
      <path id="Path_63923" data-name="Path 63923" d="M328.286,17.489a3.86,3.86,0,0,0-2.8-1.082h-4.872a3.647,3.647,0,0,0-2.79,1.127,3.93,3.93,0,0,0-.989,2.754V66.16L285.866,18.593a4.139,4.139,0,0,0-1.016-1.248,4.016,4.016,0,0,0-2.8-.938h-4.671a3.642,3.642,0,0,0-2.787,1.124,3.93,3.93,0,0,0-.992,2.757V86.555a3.834,3.834,0,0,0,.991,2.653,3.635,3.635,0,0,0,2.788,1.127h4.872a3.832,3.832,0,0,0,2.8-1.084,3.73,3.73,0,0,0,1.082-2.7V41.06l30.941,47.2.175.219c.13.132.372.389.729.778a3.554,3.554,0,0,0,2.74,1.078h4.871a3.641,3.641,0,0,0,2.735-1.172,3.9,3.9,0,0,0,1.047-2.709V20.288a3.86,3.86,0,0,0-1.084-2.8" transform="translate(-4.833 -14.682)" fill="#0a0045"/>
      <path id="Path_63924" data-name="Path 63924" d="M376.575,45.16c-.206-6.43-1.568-11.9-4.043-16.246v0A24.224,24.224,0,0,0,362.124,19a37.021,37.021,0,0,0-30.315,0,23.893,23.893,0,0,0-10.362,9.924c-2.436,4.341-3.813,9.8-4.092,16.25-.067,2.915-.1,5.811-.1,8.61s.034,5.7.1,8.638c.278,6.479,1.6,11.965,3.925,16.3a22.5,22.5,0,0,0,10.187,9.853,39.859,39.859,0,0,0,31,0A22.779,22.779,0,0,0,372.7,78.727c2.366-4.344,3.672-9.838,3.878-16.3.136-2.985.2-5.892.2-8.641s-.068-5.656-.2-8.622M346.917,80.194a16.114,16.114,0,0,1-11.6-4.278c-3.016-2.828-4.672-7.58-4.925-14.1q-.1-4.547-.1-8.135c0-2.392.033-5.07.1-8a24.754,24.754,0,0,1,2.515-10.737,13.687,13.687,0,0,1,5.733-5.8,17.955,17.955,0,0,1,8.274-1.871,18.4,18.4,0,0,1,8.475,1.871,13.672,13.672,0,0,1,5.734,5.8,23.94,23.94,0,0,1,2.413,10.74c.133,2.941.2,5.633.2,8s-.068,5.095-.2,8.1v.009c-.256,6.546-1.9,11.3-4.88,14.129-3.03,2.875-6.873,4.271-11.742,4.271" transform="translate(19.208 -15.043)" fill="#0a0045"/>
      <path id="Path_63925" data-name="Path 63925" d="M420.812,50.266a3.646,3.646,0,0,0-2.788-1.126H395.084a3.722,3.722,0,0,0-2.694,1.082,3.809,3.809,0,0,0-1.086,2.8v3.247a3.814,3.814,0,0,0,1.082,2.8,3.722,3.722,0,0,0,2.7,1.084h13.781v2.817a19.342,19.342,0,0,1-2.239,9.825,13.584,13.584,0,0,1-6.014,5.561,21,21,0,0,1-8.979,1.842c-4.958,0-9-1.363-12.032-4.05-3-2.659-4.643-7.214-4.9-13.531-.2-5.96-.2-12.007,0-17.957.253-6.258,1.881-10.762,4.843-13.388,3-2.654,7.028-4,11.982-4a19.583,19.583,0,0,1,8.36,1.533,14.672,14.672,0,0,1,5.088,3.823,15.765,15.765,0,0,1,2.771,4.8A5.047,5.047,0,0,0,409,39.385a3.5,3.5,0,0,0,2.431.772h5.987a3.725,3.725,0,0,0,2.6-.938,3.028,3.028,0,0,0,.974-2.594,16.338,16.338,0,0,0-1.927-6.475,23.936,23.936,0,0,0-5.4-6.867,28.883,28.883,0,0,0-9.132-5.406,36.366,36.366,0,0,0-13-2.124,33.354,33.354,0,0,0-15.8,3.518,24.532,24.532,0,0,0-10.179,9.915,34.008,34.008,0,0,0-3.883,14.872c-.068,2.978-.1,6.216-.1,9.624s.034,6.608.1,9.558a34.668,34.668,0,0,0,3.877,14.926,24.423,24.423,0,0,0,10.129,10.022,33.261,33.261,0,0,0,15.856,3.521,34.637,34.637,0,0,0,16.2-3.564,24.873,24.873,0,0,0,10.494-10.174A31.249,31.249,0,0,0,421.8,62.764V53.021a3.924,3.924,0,0,0-.992-2.755" transform="translate(43.61 -15.043)" fill="#0a0045"/>
    </g>
  </g>
</svg>
