<svg id="Group_17059" data-name="Group 17059" xmlns="http://www.w3.org/2000/svg" width="512" height="512" viewBox="0 0 512 512">
  <path id="Path_63786" data-name="Path 63786" d="M132,92.743A39.257,39.257,0,1,1,92.743,53.486,39.258,39.258,0,0,1,132,92.743" transform="translate(162.789 162.789)" fill="#0047bb"/>
  <g id="Group_16847" data-name="Group 16847" transform="translate(0 0.001)">
    <path id="Path_63788" data-name="Path 63788" d="M70.09,161.108c0,47.557,38.785,86.064,86.595,86.064a64.16,64.16,0,0,0,6.871-.323h.2a86.573,86.573,0,0,0,63.909-36.405l.041-.04a70.94,70.94,0,0,1,5.936-9.819A80.639,80.639,0,0,1,278.592,169.3a27.785,27.785,0,0,0,20.953-26.692v-.028c0-18.162-17.356-31.274-35.016-26.6a136.46,136.46,0,0,0-79.143,57.174.148.148,0,0,0-.041.121,32.094,32.094,0,0,1-4.35,7.152,31.264,31.264,0,0,1-30.873,10.966,30.889,30.889,0,0,1-11.083-55.735l.081-.04.163-.121a26.306,26.306,0,0,1,3.9-2.222h.041l.163-.121,67.772-38.911,74.585-42.794a27.518,27.518,0,0,0,13.859-23.75c.081-21.253-23.059-34.587-41.578-23.961L117.7,84.257l-.041.04-7.846,4.485-.285.162-.325.2a85.887,85.887,0,0,0-39.11,71.962" transform="translate(212.393 0)" fill="#0047bb"/>
    <path id="Path_63879" data-name="Path 63879" d="M299.607,161.108c0,47.557-38.785,86.064-86.595,86.064a64.157,64.157,0,0,1-6.871-.323h-.2a86.572,86.572,0,0,1-63.909-36.405l-.041-.04a70.958,70.958,0,0,0-5.936-9.819A80.64,80.64,0,0,0,91.1,169.3a27.785,27.785,0,0,1-20.953-26.692v-.028c0-18.162,17.355-31.274,35.016-26.6a136.46,136.46,0,0,1,79.143,57.174.148.148,0,0,1,.041.121,32.086,32.086,0,0,0,4.35,7.152,31.264,31.264,0,0,0,30.873,10.966,30.889,30.889,0,0,0,11.083-55.735l-.081-.04-.163-.121a26.309,26.309,0,0,0-3.9-2.222h-.041l-.163-.121L158.535,94.237,83.949,51.444A27.518,27.518,0,0,1,70.09,27.693C70.009,6.44,93.15-6.894,111.668,3.733L252,84.257l.041.04,7.846,4.485.285.162.325.2a85.887,85.887,0,0,1,39.11,71.962" transform="translate(-70.09 0)" fill="#0047bb"/>
    <path id="Path_63877" data-name="Path 63877" d="M70.09,86.064C70.09,38.507,108.875,0,156.685,0a64.154,64.154,0,0,1,6.871.323h.2a86.572,86.572,0,0,1,63.909,36.405l.041.04a70.939,70.939,0,0,0,5.936,9.819,80.639,80.639,0,0,0,44.948,31.286,27.785,27.785,0,0,1,20.953,26.692v.028c0,18.162-17.356,31.274-35.016,26.6a135.2,135.2,0,0,1-28.324-11.031,136.112,136.112,0,0,1-50.819-46.143.148.148,0,0,1-.041-.121A32.1,32.1,0,0,0,181,66.75a31.264,31.264,0,0,0-30.873-10.966,30.889,30.889,0,0,0-11.083,55.735l.081.04.163.121a26.306,26.306,0,0,0,3.9,2.222h.041l.163.121,67.772,38.911,74.585,42.794a27.518,27.518,0,0,1,13.859,23.75c.081,21.253-23.059,34.587-41.578,23.96L117.7,162.915l-.041-.04-7.846-4.485-.285-.162-.325-.2A85.887,85.887,0,0,1,70.09,86.064" transform="translate(212.393 264.827)" fill="#0047bb"/>
    <path id="Path_63878" data-name="Path 63878" d="M299.607,86.064C299.607,38.507,260.822,0,213.012,0a64.151,64.151,0,0,0-6.871.323h-.2a86.572,86.572,0,0,0-63.909,36.405l-.041.04a70.957,70.957,0,0,1-5.936,9.819A80.64,80.64,0,0,1,91.1,77.874a27.785,27.785,0,0,0-20.953,26.692v.028c0,18.162,17.355,31.274,35.016,26.6a135.206,135.206,0,0,0,28.324-11.031A136.114,136.114,0,0,0,184.31,74.023a.148.148,0,0,0,.041-.121,32.087,32.087,0,0,1,4.35-7.152,31.264,31.264,0,0,1,30.873-10.966,30.889,30.889,0,0,1,11.083,55.735l-.081.04-.163.121a26.309,26.309,0,0,1-3.9,2.222h-.041l-.163.121-67.772,38.911L83.949,195.729a27.518,27.518,0,0,0-13.859,23.75c-.081,21.253,23.059,34.587,41.578,23.96L252,162.915l.041-.04,7.846-4.485.285-.162.325-.2a85.887,85.887,0,0,0,39.11-71.962" transform="translate(-70.09 264.827)" fill="#0047bb"/>
  </g>
  <path id="Path_63792" data-name="Path 63792" d="M0,131.339V62.593a9.046,9.046,0,0,1,11.489-8.651A44.536,44.536,0,0,1,44.524,96.966,44.54,44.54,0,0,1,11.489,139.99,9.048,9.048,0,0,1,0,131.339" transform="translate(0 158.239)" fill="#0047bb"/>
  <path id="Path_63880" data-name="Path 63880" d="M0,77.716V8.97A9.046,9.046,0,0,1,11.489.32,44.536,44.536,0,0,1,44.524,43.343,44.54,44.54,0,0,1,11.489,86.367,9.048,9.048,0,0,1,0,77.716" transform="translate(512 298.548) rotate(180)" fill="#0047bb"/>
  <path id="Path_63793" data-name="Path 63793" d="M62.77,178.273H163.489a16.082,16.082,0,0,0,15.274-21.034,68.926,68.926,0,0,0-131.263,0,16.08,16.08,0,0,0,15.27,21.034" transform="translate(143.078 333.726)" fill="#0047bb"/>
  <path id="Path_63794" data-name="Path 63794" d="M62.77,0H163.489a16.082,16.082,0,0,1,15.274,21.034,68.933,68.933,0,0,1-65.634,47.873A68.921,68.921,0,0,1,47.5,21.034,16.08,16.08,0,0,1,62.77,0" transform="translate(143.078 0)" fill="#0047bb"/>
</svg>
